<svg xmlns="http://www.w3.org/2000/svg" viewBox="0 0 209 209" width="209" height="209">
<path fill="#e7da20" fill-rule="evenodd" d="M 120.0 208.5 L 88.0 208.5 L 75.0 205.5 L 59.0 199.5 L 41.0 188.5 L 25.5 174.0 L 14.5 159.0 L 6.5 143.0 L 0.5 122.0 L -0.5 95.0 L 1.5 82.0 L 9.5 59.0 L 18.5 44.0 L 34.0 26.5 L 50.0 14.5 L 69.0 5.5 L 89.0 0.5 L 110.0 -0.5 L 125.0 1.5 L 147.0 8.5 L 166.0 19.5 L 185.5 38.0 L 193.5 49.0 L 202.5 67.0 L 208.5 91.0 L 208.5 118.0 L 205.5 133.0 L 196.5 155.0 L 186.5 170.0 L 170.0 186.5 L 157.0 195.5 L 140.0 203.5 L 120.0 208.5 Z M 110.5 203.0 L 129.0 200.5 L 155.0 189.5 L 170.0 178.5 L 182.5 165.0 L 195.5 143.0 L 200.5 128.0 L 202.5 117.0 L 202.5 92.0 L 198.5 74.0 L 190.5 56.0 L 172.0 32.5 L 158.0 21.5 L 138.0 11.5 L 118.0 6.5 L 102.0 5.5 L 80.0 8.5 L 61.0 15.5 L 41.0 28.5 L 28.5 41.0 L 17.5 57.0 L 8.5 79.0 L 5.5 96.0 L 5.5 112.0 L 8.5 130.0 L 18.5 154.0 L 27.5 167.0 L 42.0 181.5 L 57.0 191.5 L 76.0 199.5 L 89.0 202.5 L 110.5 203.0 Z M 64.0 177.5 L 60.0 177.5 L 58.5 175.0 L 81.0 163.5 L 82.5 162.0 L 81.5 154.0 L 83.0 152.5 L 86.5 154.0 L 86.5 157.0 L 90.0 161.5 L 96.5 160.0 L 101.5 122.0 L 101.0 117.5 L 90.5 113.0 L 87.5 148.0 L 84.0 150.5 L 81.5 148.0 L 81.5 145.0 L 84.5 108.0 L 70.0 106.5 L 64.5 100.0 L 63.5 86.0 L 64.5 81.0 L 67.5 78.0 L 64.5 73.0 L 65.5 63.0 L 71.0 58.5 L 77.5 60.0 L 76.0 63.5 L 69.5 67.0 L 69.5 71.0 L 73.0 74.5 L 85.5 74.0 L 88.5 64.0 L 83.0 63.5 L 82.0 58.5 L 105.0 58.5 L 128.0 74.5 L 141.0 74.5 L 140.5 65.0 L 144.0 63.5 L 146.5 66.0 L 146.5 75.0 L 151.5 80.0 L 151.5 85.0 L 148.5 89.0 L 151.5 135.0 L 161.0 129.5 L 169.0 128.5 L 174.0 124.5 L 177.5 126.0 L 176.5 129.0 L 171.0 133.5 L 160.0 135.5 L 147.0 148.5 L 137.0 154.5 L 118.0 157.5 L 105.0 166.5 L 83.0 167.5 L 64.0 177.5 Z M 137.5 149.0 L 146.5 141.0 L 142.5 92.0 L 141.0 90.5 L 121.0 90.5 L 114.0 86.5 L 113.5 97.0 L 128.0 104.5 L 134.5 111.0 L 134.5 149.0 L 137.5 149.0 Z M 125.5 151.0 L 129.5 148.0 L 129.5 114.0 L 125.0 109.5 L 110.0 102.5 L 107.0 97.5 L 101.0 103.5 L 93.5 107.0 L 98.0 111.5 L 118.5 120.0 L 118.5 146.0 L 121.0 150.5 L 125.5 151.0 Z M 92.5 101.0 L 100.5 96.0 L 106.5 86.0 L 107.5 81.0 L 102.5 77.0 L 104.0 73.5 L 107.0 73.5 L 123.0 85.5 L 144.0 85.5 L 146.5 83.0 L 145.0 80.5 L 125.0 79.5 L 107.0 65.5 L 98.0 63.5 L 91.5 69.0 L 92.5 101.0 Z M 103.0 52.5 L 94.0 51.5 L 88.5 44.0 L 89.5 31.0 L 96.0 25.5 L 105.0 26.5 L 110.5 33.0 L 109.5 47.0 L 103.0 52.5 Z M 104.5 161.0 L 116.5 153.0 L 113.5 148.0 L 113.5 123.0 L 109.0 120.5 L 106.5 121.0 L 102.5 158.0 L 102.5 161.0 L 104.5 161.0 Z M 85.5 101.0 L 85.5 81.0 L 82.0 79.5 L 72.0 80.5 L 69.5 84.0 L 70.5 100.0 L 72.0 101.5 L 85.5 101.0 Z M 100.5 47.0 L 105.5 42.0 L 105.5 36.0 L 101.0 30.5 L 99.0 30.5 L 94.5 34.0 L 94.5 44.0 L 100.5 47.0 Z M 79.0 96.5 L 77.0 96.5 L 74.5 93.0 L 74.5 88.0 L 77.0 85.5 L 80.5 87.0 L 80.5 95.0 L 79.0 96.5 Z"/>
</svg>
