<svg version="1.1" id="Layer_1" xmlns="http://www.w3.org/2000/svg" xmlns:xlink="http://www.w3.org/1999/xlink" x="0px" y="0px"
	 width="100%" viewBox="0 0 920 700" enable-background="new 0 0 920 700" xml:space="preserve">

<path fill="#FD0000" opacity="1.000000" stroke="none" 
	d="
M299.092896,76.110397 
	C303.664490,73.747749 308.131622,71.149864 312.826660,69.065231 
	C328.836700,61.956642 344.526031,53.808304 361.095856,48.364277 
	C378.792480,42.550030 397.268890,38.964214 415.566742,35.190315 
	C423.847504,33.482426 432.521088,33.689877 441.012115,32.977055 
	C442.099945,32.885731 443.161713,32.483730 445.081604,32.099358 
	C457.229584,31.981934 468.531525,31.990812 479.833435,31.999687 
	C480.847107,32.333019 481.838257,32.837421 482.877777,32.974037 
	C498.706268,35.054237 514.712036,36.224159 530.336060,39.322777 
	C556.686462,44.548687 581.772949,53.957909 605.749023,66.042595 
	C626.044128,76.271996 645.268616,88.312866 662.575867,103.144691 
	C672.570251,111.709618 682.762512,120.158356 691.872498,129.616089 
	C709.536560,147.954453 724.956787,168.138535 737.656494,190.280991 
	C741.012268,196.131775 743.908936,202.245819 747.022522,209.055603 
	C746.953430,211.472748 746.878174,213.073288 746.787659,215.000000 
	C744.771545,215.000000 743.132568,214.994003 741.493591,215.000870 
	C662.141541,215.333221 582.789429,215.661209 503.437561,216.040756 
	C501.907593,216.048065 500.380554,216.664215 498.429138,216.997437 
	C490.608246,215.998718 483.217346,214.254303 475.810638,214.184113 
	C466.168427,214.092758 456.468994,214.951675 446.874451,216.082596 
	C431.528900,217.891418 417.255493,223.160965 403.921509,230.917542 
	C403.949677,230.933823 403.935455,230.870514 403.622498,231.015320 
	C401.830933,232.083588 400.352325,233.007019 398.915253,233.942398 
	C398.956818,233.954330 398.935638,233.870483 398.621002,234.016617 
	C396.810211,235.096222 395.314056,236.029678 393.598053,237.009888 
	C393.090637,237.226791 392.953705,237.478806 392.652374,237.973450 
	C385.494507,244.079758 378.651703,250.025238 371.529358,256.066498 
	C370.487488,257.047546 369.725220,257.932831 368.667664,258.971283 
	C367.854126,260.070740 367.335938,261.016968 366.554596,262.044189 
	C365.848633,262.689453 365.405792,263.253784 364.667664,263.971283 
	C363.854126,265.070740 363.335938,266.016968 362.597931,267.009949 
	C362.090576,267.226715 361.953735,267.478668 361.671173,267.967743 
	C360.555298,269.390778 359.735901,270.658569 358.605652,272.065857 
	C357.504639,273.776459 356.714447,275.347565 355.612793,277.058838 
	C354.508942,278.772217 353.716614,280.345428 352.598633,282.075104 
	C352.011078,282.818817 351.712463,283.392639 351.492767,283.995270 
	C347.613220,294.637573 343.743317,305.283356 339.919189,315.947571 
	C339.967010,315.966766 339.928680,315.871094 339.576172,316.084320 
	C338.148804,325.474854 336.639099,334.628632 336.140594,343.837128 
	C335.761536,350.838684 336.271881,357.958649 337.133453,364.933685 
	C337.767181,370.063873 339.608704,375.044861 340.922119,380.056580 
	C340.932220,380.020813 340.858124,380.015198 340.921356,380.404419 
	C341.284729,382.227570 341.584869,383.661499 341.907135,385.278931 
	C341.929260,385.462433 341.953339,385.831360 341.717834,385.915588 
	C341.321747,386.044556 341.161102,386.089264 340.613342,386.081421 
	C338.243927,386.437439 336.589813,388.332520 334.562164,385.116028 
	C319.568939,361.331909 304.272461,337.739136 289.105286,314.064423 
	C266.402618,278.627380 243.657196,243.217438 221.080261,207.700424 
	C213.393204,195.607513 204.039917,184.488342 199.163727,170.486115 
	C200.230087,168.816223 201.178787,167.442276 202.083557,166.053375 
	C202.039627,166.038406 202.068893,166.126495 202.364624,165.985046 
	C203.167465,164.907837 203.674576,163.972076 204.402451,162.989304 
	C204.911057,162.770233 205.048782,162.516647 205.331635,162.028244 
	C206.145157,160.928741 206.663406,159.982544 207.402405,158.989319 
	C207.911057,158.770264 208.048782,158.516663 208.331635,158.028244 
	C209.145157,156.928741 209.663406,155.982544 210.402435,154.989304 
	C210.911102,154.770157 211.048859,154.516525 211.328995,154.030777 
	C211.811554,153.263016 212.001678,152.645813 212.471954,151.931976 
	C213.513519,150.950729 214.274933,150.066132 215.331635,149.028229 
	C216.145172,147.928757 216.663422,146.982544 217.462769,145.939484 
	C218.508102,144.955536 219.272324,144.068451 220.328827,143.030945 
	C220.794083,142.259064 220.967072,141.637589 221.088776,141.016571 
	C221.037491,141.017029 221.055618,141.117996 221.339676,141.004211 
	C222.143066,140.272369 222.662384,139.654297 223.402496,138.989227 
	C223.911118,138.770172 224.048813,138.516571 224.333160,138.035126 
	C225.815781,136.603043 227.001587,135.317245 228.406982,133.985840 
	C228.912460,133.767990 229.049057,133.515091 229.331619,133.028229 
	C230.145142,131.928726 230.663391,130.982513 231.485550,129.917755 
	C233.869171,127.596336 235.948883,125.393478 238.325867,123.042435 
	C240.116791,121.296425 241.610458,119.698616 243.076691,118.089027 
	C243.049225,118.077255 243.063248,118.135185 243.391449,118.072182 
	C244.540283,117.351555 245.360931,116.693939 246.485291,115.917976 
	C248.871384,113.593620 250.953766,111.387619 253.321564,109.099838 
	C254.225815,108.630302 254.844620,108.242538 255.440567,107.851425 
	C255.417709,107.848061 255.464218,107.875816 255.728699,107.677734 
	C256.724304,106.663795 257.455444,105.847939 258.406494,104.986214 
	C258.912354,104.768112 259.048981,104.515160 259.362976,104.097900 
	C260.520355,103.354965 261.350952,102.695641 262.444855,101.955673 
	C263.150848,101.310524 263.593536,100.746010 264.362976,100.097900 
	C265.520355,99.354973 266.350952,98.695648 267.402344,97.989326 
	C267.911041,97.770309 268.048737,97.516708 268.358795,97.098083 
	C269.496674,96.365974 270.311920,95.717323 271.085022,95.055641 
	C271.042877,95.042603 271.068939,95.126945 271.375244,94.986664 
	C273.163483,93.587067 274.645447,92.327751 276.078857,91.053802 
	C276.030273,91.039162 276.063477,91.135033 276.387512,91.072235 
	C277.516724,90.362556 278.321930,89.715668 279.078583,89.054031 
	C279.030029,89.039284 279.063263,89.135185 279.391449,89.072182 
	C280.540283,88.351555 281.360901,87.693939 282.402222,86.989151 
	C282.910553,86.769981 283.048309,86.516495 283.358795,86.098076 
	C284.496674,85.365967 285.311920,84.717323 286.078003,84.052887 
	C286.028778,84.037109 286.066925,84.133156 286.427429,84.069839 
	C290.901093,81.360313 295.014252,78.714119 299.096313,76.060097 
	C299.065247,76.052269 299.092896,76.110397 299.092896,76.110397 
z"/>
<path fill="#FFEC3B" opacity="1.000000" stroke="none" 
	d="
M498.852142,216.996307 
	C500.380554,216.664215 501.907593,216.048065 503.437561,216.040756 
	C582.789429,215.661209 662.141541,215.333221 741.493591,215.000870 
	C743.132568,214.994003 744.771545,215.000000 746.787659,215.000000 
	C746.878174,213.073288 746.953430,211.472748 747.096436,209.432709 
	C750.395386,215.549301 754.307678,221.865280 756.720581,228.709824 
	C762.307678,244.558701 767.926025,260.469574 772.088135,276.724945 
	C775.479797,289.971649 776.876160,303.739502 778.948120,317.308167 
	C779.641724,321.850525 779.689941,326.491394 780.024231,332.012512 
	C780.061768,344.290100 780.108337,355.642426 780.093018,367.455078 
	C779.340271,377.099762 779.576355,386.471802 777.762756,395.428802 
	C774.141907,413.311676 770.098694,431.173889 764.940918,448.664551 
	C758.254089,471.340576 747.896545,492.548523 735.621826,513.112671 
	C732.857178,517.515137 730.387390,521.737122 727.956543,525.978760 
	C727.995422,525.998352 727.959351,525.919128 727.674988,526.068481 
	C726.856384,527.137146 726.322144,528.056519 725.589233,529.037109 
	C725.138062,529.260010 724.999390,529.490356 724.704224,529.969849 
	C723.928223,531.088989 723.422485,532.027527 722.957031,532.980957 
	C722.997192,532.995850 722.959106,532.919067 722.678223,533.064331 
	C721.903809,534.128113 721.410278,535.046753 720.957275,535.980164 
	C720.997803,535.994995 720.958923,535.917847 720.656677,536.056885 
	C719.208862,537.783569 718.063293,539.371094 716.954712,540.976746 
	C716.991760,540.994873 716.959351,540.919128 716.674988,541.068481 
	C715.856384,542.137146 715.322205,543.056519 714.590698,544.038818 
	C714.142700,544.263306 714.003052,544.492432 713.700928,544.973816 
	C712.880798,546.097534 712.334351,547.036743 711.542725,548.076050 
	C710.856506,548.713867 710.415527,549.251587 709.700928,549.973877 
	C708.880920,551.097595 708.334412,552.036743 707.536987,553.081177 
	C706.822937,553.736145 706.359924,554.285889 705.682251,554.939941 
	C705.179932,555.229797 705.014893,555.492371 704.694458,556.004700 
	C703.873779,557.110291 703.330872,558.043091 702.500366,559.119507 
	C700.133362,561.438599 698.053955,563.613953 695.704224,565.969849 
	C694.928223,567.089050 694.422546,568.027527 693.944702,568.952515 
	C693.972534,568.939087 693.929199,568.894043 693.635193,569.043457 
	C691.817810,570.793457 690.294373,572.394104 688.487915,574.131958 
	C686.128540,576.442139 684.052124,578.615112 681.690186,580.954590 
	C680.532837,581.738892 679.661072,582.356750 678.594116,583.038452 
	C678.149292,583.260376 678.011230,583.486450 677.698120,583.950134 
	C676.198975,585.410217 674.986389,586.700806 673.532715,588.088379 
	C672.853027,588.719604 672.414429,589.253845 671.690247,589.954590 
	C670.532837,590.738892 669.661072,591.356750 668.526001,592.094849 
	C667.500427,593.072754 666.738098,593.930420 665.690186,594.954590 
	C664.532837,595.738892 663.661072,596.356750 662.524536,597.096191 
	C661.495605,598.083008 660.731384,598.948181 659.654663,599.895264 
	C658.832825,600.307373 658.323486,600.637634 657.610474,601.027771 
	C657.145630,601.248779 657.001953,601.482239 656.690186,601.954590 
	C655.532837,602.738892 654.661072,603.356750 653.590576,604.035950 
	C653.138916,604.258728 653.000244,604.488953 652.690186,604.954590 
	C651.532898,605.738953 650.661072,606.356750 649.590576,607.036011 
	C649.138916,607.258728 649.000244,607.488953 648.695129,607.950989 
	C647.582703,608.729065 646.750916,609.344238 645.958801,609.977295 
	C645.998474,609.995178 645.958984,609.917603 645.645813,610.058899 
	C643.007324,611.937256 640.682007,613.674316 638.091064,615.579651 
	C636.524353,616.476135 635.223145,617.204346 633.637085,618.056702 
	C632.545837,618.761169 631.739441,619.341492 630.616821,620.071655 
	C617.588135,626.946777 605.126648,634.216492 592.085632,640.229309 
	C581.161011,645.266418 569.679260,649.201599 558.222839,652.947693 
	C547.608521,656.418518 536.700745,658.992126 525.949097,661.948242 
	C525.975891,661.935547 525.938416,661.888794 525.516113,661.932129 
	C510.061249,663.702393 495.028625,665.429443 479.530701,667.086060 
	C467.711670,667.062561 456.357941,667.109375 444.544830,667.095215 
	C439.388092,666.635498 434.690704,666.236755 429.995544,665.428772 
	C431.429596,661.114746 432.350739,656.919861 434.376923,653.352722 
	C446.552887,631.916748 458.916382,610.586304 471.345215,589.295349 
	C484.677734,566.456299 498.153473,543.700928 511.562927,520.906860 
	C521.577881,503.882965 531.687439,486.913452 541.544312,469.798431 
	C545.015259,463.771606 547.860901,457.384583 551.293579,451.008850 
	C552.426025,449.583679 553.256775,448.311615 554.353638,446.930969 
	C555.086060,446.493958 555.552307,446.165558 556.364624,445.887665 
	C567.024658,437.981293 574.749756,427.814209 581.643616,416.907837 
	C598.565430,390.136871 604.840576,360.917603 600.864929,329.674561 
	C598.046204,307.522705 589.825928,287.226776 576.500671,269.234009 
	C572.652466,264.037964 567.759827,259.615509 563.278198,254.834869 
	C563.210388,254.831329 563.139587,254.947205 563.270508,254.634048 
	C562.946655,253.852249 562.491882,253.383606 562.026184,252.950577 
	C562.015259,252.986191 562.086853,252.965622 561.967773,252.684036 
	C561.240906,251.864319 560.633057,251.326187 559.922974,250.544739 
	C559.288879,249.864151 558.757141,249.426895 558.045166,248.691284 
	C548.477600,241.902206 539.567322,234.518326 529.566345,229.176453 
	C519.913574,224.020569 509.135742,220.971115 498.852142,216.996307 
z"/>
<path fill="#268839" opacity="1.000000" stroke="none" 
	d="
M410.018188,664.103760 
	C410.018188,664.103821 409.629547,663.939331 409.418579,663.939087 
	C400.533783,661.951843 391.855194,659.985229 383.189087,657.964905 
	C380.711304,657.387207 378.269806,656.653870 375.221313,655.965881 
	C374.630951,655.939880 374.215088,655.945068 374.053223,655.658264 
	C373.267517,655.282288 372.643677,655.193115 371.826965,655.022095 
	C371.634094,654.940186 371.215088,654.945068 371.053223,654.658203 
	C370.267517,654.282227 369.643677,654.193054 368.827026,654.022034 
	C368.634216,653.940186 368.215332,653.945312 368.027832,653.635864 
	C366.900818,653.252258 365.961304,653.178101 364.828552,653.022034 
	C364.635254,652.940186 364.215485,652.945435 364.008057,652.619751 
	C357.866119,650.230652 351.931549,648.167297 345.810059,646.022095 
	C345.623108,645.940247 345.214996,645.945068 345.017395,645.625732 
	C340.242310,643.486389 335.664795,641.666382 331.070007,639.891541 
	C331.052673,639.936768 331.148956,639.947449 331.050720,639.694946 
	C330.639313,639.329590 330.326111,639.216736 329.822418,639.022156 
	C329.631927,638.940369 329.217377,638.946167 329.093231,638.700806 
	C328.650818,638.338318 328.332520,638.221130 327.823425,638.022156 
	C327.632568,637.940369 327.217377,637.946167 327.093231,637.700806 
	C326.650818,637.338318 326.332520,637.221130 325.822876,637.022095 
	C325.631470,636.940186 325.215088,636.945068 325.053223,636.658203 
	C324.267517,636.282227 323.643677,636.193054 322.827545,636.022095 
	C322.635254,635.940308 322.217377,635.946167 322.093231,635.700806 
	C321.650787,635.338318 321.332520,635.221130 320.823425,635.022156 
	C320.632568,634.940369 320.217377,634.946167 320.093231,634.700806 
	C319.650818,634.338318 319.332520,634.221130 318.821289,634.021729 
	C318.628357,633.939514 318.208923,633.939941 318.027191,633.634033 
	C315.228851,631.919861 312.612244,630.511719 309.809753,629.021729 
	C309.623932,628.939941 309.217377,628.946167 309.093231,628.700806 
	C308.650818,628.338318 308.332550,628.221130 307.823425,628.022156 
	C307.632568,627.940369 307.217377,627.946167 307.093231,627.700806 
	C306.650818,627.338318 306.332520,627.221130 305.766968,626.989929 
	C305.088013,626.568176 304.656342,626.260376 304.036865,625.642822 
	C298.097046,621.961487 292.345032,618.589844 286.379456,614.964966 
	C281.138824,611.094177 276.111755,607.476562 271.061920,603.909302 
	C271.039154,603.959656 271.148956,603.947449 271.050720,603.694946 
	C270.639313,603.329590 270.326111,603.216797 269.816406,603.024475 
	C269.619873,602.945007 269.196075,602.956970 269.077515,602.698120 
	C268.655945,602.218506 268.352936,601.997864 268.003296,601.562378 
	C267.787994,601.068665 267.540771,600.934509 267.035950,600.641846 
	C263.266266,597.512329 259.675659,594.685974 256.070312,591.903687 
	C256.055603,591.947876 256.148682,591.946594 256.050537,591.694336 
	C255.639526,591.329956 255.326675,591.217773 254.722626,590.962158 
	C253.018204,589.531250 251.604980,588.243835 250.076233,586.700195 
	C249.650452,586.248230 249.340210,586.052490 249.038910,585.906738 
	C249.047852,585.956604 249.140198,585.914795 248.993988,585.606812 
	C246.247437,583.137512 243.647095,580.976196 240.938431,578.510010 
	C238.950409,576.455811 237.070724,574.706360 235.074661,572.697937 
	C234.655624,572.219971 234.352966,572.000977 234.004395,571.565125 
	C233.788513,571.066345 233.539047,570.931763 233.047760,570.640991 
	C230.605881,567.829468 228.326324,565.321350 225.947876,562.518555 
	C224.628281,561.133728 223.407547,560.043457 222.046158,558.658691 
	C221.298843,557.529968 220.692184,556.695740 220.067657,555.907227 
	C220.049805,555.953003 220.140350,555.914795 219.994965,555.607910 
	C216.922485,551.825684 213.995407,548.350281 211.046982,544.922974 
	C211.025635,544.970947 211.130386,544.978516 211.040314,544.709595 
	C210.650314,544.219727 210.350403,543.998779 209.968018,543.517944 
	C209.555695,542.835449 209.225830,542.412781 208.910400,541.719055 
	C208.633286,541.249023 208.341721,541.050049 208.045593,540.905640 
	C208.041031,540.960205 208.140869,540.915161 207.991531,540.603882 
	C204.161285,535.338318 200.480377,530.383972 196.580627,525.145020 
	C192.923630,519.165344 189.485519,513.470337 185.967773,507.515503 
	C185.557419,506.833557 185.226700,506.411469 184.906708,505.713257 
	C184.628754,505.217865 184.340088,504.998657 184.055374,504.573517 
	C184.059326,504.367584 183.895981,503.989410 183.906693,503.713257 
	C183.628738,503.217865 183.340073,502.998657 183.055557,502.577148 
	C183.059708,502.374817 182.896408,502.004517 182.856201,501.654907 
	C181.230652,498.800476 179.645294,496.295715 178.060181,493.582092 
	C178.060455,493.373291 177.895981,492.989410 177.906708,492.713257 
	C177.628754,492.217865 177.340088,491.998657 177.055374,491.573517 
	C177.059326,491.367584 176.895981,490.989410 176.906693,490.713257 
	C176.628738,490.217865 176.340073,489.998657 176.055389,489.572479 
	C176.059357,489.365509 175.896072,488.985107 175.949310,488.659271 
	C175.686752,487.817291 175.370941,487.301178 175.057480,486.577698 
	C175.059845,486.370361 174.895981,485.989410 174.906708,485.713257 
	C174.628754,485.217865 174.340088,484.998657 174.055374,484.573517 
	C174.059326,484.367584 173.895981,483.989410 173.906708,483.713257 
	C173.628754,483.217865 173.340088,482.998657 173.055374,482.573700 
	C173.059326,482.367950 172.895981,481.990173 172.910400,481.719025 
	C172.633286,481.248932 172.341751,481.049988 172.056335,480.899567 
	C172.062469,480.948059 172.153503,480.912445 172.090271,480.542419 
	C170.036255,475.709778 168.045486,471.247131 166.053360,466.581360 
	C166.052017,466.378174 165.895981,466.002960 165.947006,465.622498 
	C163.685364,459.424988 161.372696,453.607941 159.060257,447.580566 
	C159.060486,447.370300 158.896088,446.983215 158.952209,446.624878 
	C158.690491,445.439240 158.372650,444.611938 158.057312,443.576416 
	C158.059814,443.368134 157.896072,442.985107 157.949310,442.659271 
	C157.686737,441.817291 157.370926,441.301178 157.057495,440.576660 
	C157.059860,440.368317 156.896072,439.985107 156.949310,439.659271 
	C156.686752,438.817291 156.370926,438.301178 156.057648,437.576172 
	C156.060165,437.367310 155.896439,436.982971 155.952301,436.583801 
	C155.346207,433.726837 154.612854,431.285645 154.035141,428.808167 
	C152.014420,420.142487 150.047424,411.464294 148.060257,402.580261 
	C148.060501,402.369690 147.896118,401.981934 147.952515,401.583862 
	C147.690811,399.718689 147.372711,398.251556 147.057205,396.575439 
	C147.059799,396.366486 146.896103,395.981873 146.952667,395.539185 
	C146.295425,385.725922 145.581635,376.355347 144.898315,366.519012 
	C144.961868,354.583313 144.994949,343.113403 144.956024,331.205811 
	C145.221375,324.186584 145.558746,317.605042 145.978302,310.828217 
	C146.060501,310.632965 146.059998,310.209259 146.412811,309.964355 
	C147.895447,301.841858 149.025284,293.964264 150.108551,286.056824 
	C150.061996,286.026917 150.084686,286.135223 150.412201,285.946625 
	C150.791855,284.512939 150.843979,283.267853 150.977081,281.828979 
	C151.058075,281.635162 151.054993,281.215088 151.395386,280.988037 
	C152.455856,276.847351 153.175949,272.933746 153.977966,268.827148 
	C154.059875,268.634155 154.055237,268.214813 154.342041,268.052979 
	C154.717941,267.267303 154.807007,266.643463 154.977966,265.826843 
	C155.059845,265.634064 155.054916,265.215210 155.364319,265.027710 
	C155.747849,263.900726 155.821976,262.961273 155.977997,261.828339 
	C156.059891,261.634888 156.055237,261.214813 156.342041,261.052979 
	C156.717926,260.267303 156.807007,259.643463 156.978271,258.825256 
	C157.060486,258.630920 157.060028,258.208923 157.390686,257.995392 
	C159.446228,252.186920 161.171097,246.591995 162.975113,240.809509 
	C163.054245,240.621948 163.055222,240.214828 163.342041,240.053009 
	C163.717911,239.267365 163.806992,238.643524 163.975037,237.826904 
	C164.053986,237.634125 164.053741,237.217484 164.299103,237.093292 
	C164.661621,236.650726 164.778809,236.332367 164.975067,235.822037 
	C165.054169,235.630066 165.055222,235.214828 165.342041,235.053009 
	C165.717926,234.267365 165.806992,233.643524 165.975128,232.826263 
	C166.054169,232.632812 166.055161,232.214844 166.364716,232.028320 
	C167.414810,229.893585 168.155350,227.945358 168.977859,225.810150 
	C169.059830,225.623154 169.055222,225.214828 169.342041,225.053009 
	C169.717926,224.267365 169.807007,223.643524 169.977875,222.827484 
	C170.059677,222.635254 170.053741,222.217484 170.299103,222.093292 
	C170.661621,221.650726 170.778809,221.332367 170.977814,220.823273 
	C171.059647,220.632553 171.053741,220.217484 171.299103,220.093292 
	C171.661621,219.650726 171.778793,219.332367 171.977814,218.823273 
	C172.059647,218.632553 172.053741,218.217484 172.299103,218.093292 
	C172.661621,217.650726 172.778809,217.332367 172.977814,216.823273 
	C173.059647,216.632553 173.053741,216.217484 173.299103,216.093292 
	C173.661621,215.650726 173.778793,215.332367 173.978210,214.821243 
	C174.060455,214.628479 174.059891,214.209320 174.377609,214.013824 
	C180.504776,202.920761 186.314209,192.023163 192.095795,181.100967 
	C192.067932,181.076355 192.052536,181.148972 192.305115,181.050720 
	C192.670441,180.639236 192.783218,180.325989 193.010437,179.764648 
	C193.434525,179.083542 193.744141,178.650513 194.299103,178.093292 
	C194.661621,177.650726 194.778809,177.332367 194.977814,176.823273 
	C195.059647,176.632553 195.053741,176.217484 195.299103,176.093292 
	C195.661636,175.650726 195.778809,175.332367 195.978241,174.821228 
	C196.060471,174.628433 196.060028,174.209229 196.360809,174.047791 
	C197.456406,172.851578 198.251221,171.816818 199.046036,170.782043 
	C204.039917,184.488342 213.393204,195.607513 221.080261,207.700424 
	C243.657196,243.217438 266.402618,278.627380 289.105286,314.064423 
	C304.272461,337.739136 319.568939,361.331909 334.562164,385.116028 
	C336.589813,388.332520 338.243927,386.437439 340.660095,386.324890 
	C341.297638,386.914490 341.577606,387.076294 341.919189,387.068665 
	C341.904510,387.031067 341.843750,387.084137 341.908295,387.459595 
	C347.445129,399.191864 351.890625,411.204773 358.629974,421.751984 
	C368.775696,437.630127 382.538757,450.334137 398.719055,460.285950 
	C418.690033,472.569244 440.433685,478.885895 463.751160,480.011353 
	C478.962433,480.745514 493.877350,478.335052 508.226074,473.716064 
	C516.866394,470.934662 524.826538,466.040283 533.437500,462.061554 
	C535.218445,461.050964 536.654297,460.074280 538.449646,459.061340 
	C542.870117,456.404083 546.931091,453.783020 550.992004,451.161987 
	C547.860901,457.384583 545.015259,463.771606 541.544312,469.798431 
	C531.687439,486.913452 521.577881,503.882965 511.562927,520.906860 
	C498.153473,543.700928 484.677734,566.456299 471.345215,589.295349 
	C458.916382,610.586304 446.552887,631.916748 434.376923,653.352722 
	C432.350739,656.919861 431.429596,661.114746 429.995544,665.428772 
	C425.623016,665.555603 421.252716,665.273193 416.440033,665.047241 
	C415.997650,665.103577 415.623535,664.939880 415.200134,664.607910 
	C413.190582,664.218506 411.604370,664.161133 410.018188,664.103760 
z"/>

<path fill="#02AAF5" opacity="1.000000" stroke="none" 
	d="
M393.115356,442.908264 
	C390.135223,440.223541 387.155121,437.538849 383.812286,434.795868 
	C383.449585,434.737610 383.370087,434.747223 383.429565,434.434662 
	C383.008972,433.713104 382.528870,433.304108 382.038818,432.933838 
	C382.028900,432.972565 382.106628,432.953888 381.990173,432.670685 
	C381.260101,431.858154 380.646484,431.328827 379.943329,430.545715 
	C379.306519,429.853729 378.759216,429.415497 378.211914,428.977264 
	C375.041229,425.050903 371.870514,421.124542 368.375061,417.077820 
	C368.050323,416.957489 368.114685,416.953003 368.061493,416.628357 
	C367.358521,415.499237 366.708740,414.694763 366.052307,413.931122 
	C366.045654,413.971954 366.124084,413.945557 366.066895,413.622009 
	C365.359467,412.495697 364.709198,411.692963 364.064423,410.920227 
	C364.069885,410.950195 364.119659,410.914337 364.119659,410.914337 
	C362.984985,408.681671 361.850311,406.449005 360.400330,404.071838 
	C356.572205,393.652008 352.289978,383.562683 349.748444,373.052460 
	C346.812531,360.911285 346.257751,348.478333 347.744141,335.826721 
	C349.286285,322.700500 352.520447,310.313293 357.832520,298.251373 
	C362.556030,287.525879 368.775665,277.861816 376.439728,269.127930 
	C386.185150,258.022156 397.583862,248.756561 410.786560,242.172684 
	C423.791595,235.687347 437.575226,231.567719 452.209259,229.846756 
	C471.580200,227.568726 490.086334,230.261765 508.160339,236.993195 
	C522.074951,242.175476 534.484741,249.842972 545.450928,259.909119 
	C556.095154,269.679718 565.609070,280.547791 571.569214,293.622986 
	C576.510620,304.463257 579.551086,316.216278 582.874207,327.726501 
	C584.309021,332.696167 585.080017,338.107208 584.843323,343.257568 
	C584.354431,353.892426 582.987000,364.486877 581.979614,375.538208 
	C581.978210,375.978455 581.936523,375.882568 581.936523,375.882568 
	C579.419922,382.644806 577.461304,389.686646 574.248108,396.099854 
	C570.065063,404.448395 564.886108,412.297943 559.755432,420.719818 
	C559.107727,421.244019 558.971558,421.484863 558.681519,421.968872 
	C557.864075,423.080963 557.331726,424.024109 556.589661,425.020721 
	C556.109558,425.240570 555.971802,425.482452 555.667725,425.965332 
	C552.179138,429.409454 548.989563,432.688141 545.799988,435.966858 
	C544.927185,436.729156 544.054443,437.491486 542.766174,438.697235 
	C536.875793,443.065887 531.400940,446.991119 525.926086,450.916321 
	C516.820496,454.644531 507.897797,458.934692 498.567169,461.971497 
	C483.979034,466.719452 468.890808,468.755981 453.608795,465.958282 
	C442.959656,464.008759 432.443359,461.333313 421.458771,458.953735 
	C421.049805,458.925385 421.105560,458.942627 420.929443,458.625916 
	C416.852386,456.503052 412.951447,454.696869 409.058929,452.921844 
	C409.067352,452.952972 409.118713,452.913483 409.118713,452.913483 
	C406.983215,451.674957 404.847687,450.436401 402.381409,449.062256 
	C402.050598,448.926636 402.107971,448.941528 401.966553,448.653931 
	C400.900177,447.874054 399.975281,447.381714 399.040039,446.929749 
	C399.029663,446.970123 399.107971,446.941528 398.966553,446.653931 
	C397.900208,445.874023 396.975281,445.381714 396.040039,444.929749 
	C396.029663,444.970123 396.107971,444.941528 395.966553,444.653961 
	C394.900177,443.874054 393.975281,443.381714 393.058899,442.920197 
	C393.067413,442.950989 393.115356,442.908264 393.115356,442.908264 
z"/>
</svg>