<svg xmlns="http://www.w3.org/2000/svg" width="108" height="94" viewBox="0 0 108 94" fill="none">
  <path d="M 52 0 L 51 1 L 50 1 L 46 5 L 45 5 L 41 9 L 40 9 L 36 13 L 35 13 L 34 12 L 34 10 L 35 9 L 35 7 L 19 7 L 19 9 L 20 10 L 20 25 L 17 28 L 16 28 L 12 32 L 11 32 L 7 36 L 6 36 L 1 41 L 1 42 L 0 43 L 0 45 L 1 46 L 1 47 L 3 49 L 4 49 L 5 50 L 7 50 L 8 49 L 9 49 L 10 48 L 11 48 L 12 49 L 12 51 L 13 52 L 13 53 L 12 54 L 12 56 L 11 57 L 11 58 L 12 59 L 12 61 L 13 62 L 13 63 L 12 64 L 12 66 L 11 67 L 11 68 L 12 69 L 12 70 L 13 71 L 13 73 L 12 74 L 12 76 L 11 77 L 11 78 L 12 79 L 12 80 L 13 81 L 13 83 L 12 84 L 12 86 L 11 87 L 12 88 L 12 90 L 15 93 L 93 93 L 96 90 L 96 84 L 94 82 L 96 80 L 96 75 L 95 74 L 95 71 L 96 70 L 96 65 L 95 64 L 95 61 L 96 60 L 96 55 L 95 54 L 95 51 L 96 50 L 96 49 L 97 48 L 98 48 L 99 49 L 100 49 L 101 50 L 102 50 L 103 49 L 105 49 L 107 47 L 107 41 L 103 37 L 102 37 L 98 33 L 97 33 L 93 29 L 92 29 L 88 25 L 87 25 L 83 21 L 82 21 L 78 17 L 77 17 L 73 13 L 72 13 L 68 9 L 67 9 L 63 5 L 62 5 L 59 2 L 58 2 L 56 0 Z M 89 84 L 92 84 L 93 85 L 93 86 L 94 87 L 94 88 L 92 90 L 91 90 L 90 91 L 89 90 L 88 90 L 87 89 L 87 86 Z M 16 84 L 19 84 L 21 86 L 21 88 L 18 91 L 17 90 L 16 90 L 14 88 L 14 86 Z M 23 84 L 24 83 L 84 83 L 85 84 L 85 85 L 84 86 L 84 89 L 85 90 L 84 91 L 24 91 L 23 90 L 23 89 L 24 88 L 24 86 L 23 85 Z M 89 74 L 92 74 L 93 75 L 93 76 L 94 77 L 94 78 L 91 81 L 90 81 L 89 80 L 88 80 L 87 79 L 87 76 Z M 23 75 L 24 74 L 41 74 L 42 75 L 42 77 L 66 77 L 66 75 L 67 74 L 84 74 L 85 75 L 84 76 L 84 79 L 85 80 L 84 81 L 24 81 L 23 80 L 23 79 L 24 78 L 24 76 Z M 16 74 L 19 74 L 21 76 L 21 78 L 18 81 L 17 81 L 14 78 L 14 76 Z M 89 64 L 92 64 L 93 65 L 93 66 L 94 67 L 94 68 L 91 71 L 89 71 L 87 69 L 87 66 Z M 66 65 L 67 64 L 84 64 L 85 65 L 84 66 L 84 69 L 85 70 L 84 71 L 67 71 L 66 70 Z M 23 65 L 24 64 L 41 64 L 42 65 L 42 70 L 41 71 L 24 71 L 23 70 L 23 69 L 24 68 L 24 66 Z M 16 64 L 19 64 L 21 66 L 21 69 L 20 70 L 19 70 L 18 71 L 17 71 L 14 68 L 14 66 Z M 55 60 L 56 59 L 63 59 L 64 60 L 64 73 L 63 74 L 56 74 L 55 73 Z M 44 60 L 45 59 L 52 59 L 53 60 L 53 73 L 52 74 L 45 74 L 44 73 Z M 89 54 L 91 54 L 94 57 L 94 58 L 91 61 L 89 61 L 87 59 L 87 56 Z M 66 55 L 67 54 L 84 54 L 85 55 L 84 56 L 84 59 L 85 60 L 84 61 L 67 61 L 66 60 Z M 23 55 L 24 54 L 41 54 L 42 55 L 42 60 L 41 61 L 24 61 L 23 60 L 23 59 L 24 58 L 24 57 L 23 56 Z M 16 54 L 19 54 L 21 56 L 21 59 L 19 61 L 16 61 L 15 60 L 15 59 L 14 58 L 14 56 Z M 55 51 L 56 50 L 63 50 L 64 51 L 64 55 L 63 56 L 56 56 L 55 55 Z M 44 51 L 45 50 L 52 50 L 53 51 L 53 55 L 52 56 L 45 56 L 44 55 Z M 89 44 L 91 44 L 94 47 L 94 48 L 93 49 L 93 50 L 92 51 L 89 51 L 87 49 L 87 46 Z M 23 45 L 24 44 L 84 44 L 85 45 L 84 46 L 84 49 L 85 50 L 84 51 L 67 51 L 66 50 L 66 48 L 65 47 L 42 47 L 42 50 L 41 51 L 24 51 L 23 50 L 24 49 L 24 47 L 23 46 Z M 17 44 L 18 44 L 19 45 L 20 45 L 21 46 L 21 49 L 19 51 L 16 51 L 14 49 L 14 47 Z M 28 34 L 80 34 L 82 36 L 83 36 L 87 40 L 86 41 L 21 41 L 20 40 L 21 39 L 22 39 L 25 36 L 26 36 Z M 40 24 L 68 24 L 72 28 L 73 28 L 75 30 L 74 31 L 34 31 L 33 30 L 35 28 L 36 28 Z M 54 13 L 57 16 L 58 16 L 62 20 L 61 21 L 47 21 L 46 20 L 50 16 L 51 16 Z M 23 11 L 24 10 L 30 10 L 31 11 L 31 16 L 27 20 L 26 20 L 24 22 L 23 21 Z M 52 3 L 55 3 L 56 4 L 57 4 L 61 8 L 62 8 L 66 12 L 67 12 L 70 15 L 71 15 L 75 19 L 76 19 L 80 23 L 81 23 L 85 27 L 86 27 L 90 31 L 91 31 L 95 35 L 96 35 L 100 39 L 101 39 L 105 43 L 105 45 L 103 47 L 101 47 L 100 46 L 99 46 L 95 42 L 94 42 L 90 38 L 89 38 L 85 34 L 84 34 L 80 30 L 79 30 L 75 26 L 74 26 L 70 22 L 69 22 L 65 18 L 64 18 L 60 14 L 59 14 L 56 11 L 55 11 L 54 10 L 53 10 L 49 14 L 48 14 L 44 18 L 43 18 L 40 21 L 39 21 L 35 25 L 34 25 L 30 29 L 29 29 L 25 33 L 24 33 L 20 37 L 19 37 L 15 41 L 14 41 L 10 45 L 9 45 L 7 47 L 5 47 L 3 45 L 3 43 L 8 38 L 9 38 L 13 34 L 14 34 L 17 31 L 18 31 L 22 27 L 23 27 L 27 23 L 28 23 L 32 19 L 33 19 L 37 15 L 38 15 L 42 11 L 43 11 L 47 7 L 48 7 Z" fill="#e6c200" fill-rule="evenodd"/>
</svg>