<svg xmlns="http://www.w3.org/2000/svg" width="242" height="243" viewBox="0 0 242 243" fill="none">
  <path d="M 201 127 L 173 127 L 170 140 L 166 148 L 158 157 L 157 160 L 174 178 L 178 177 L 183 172 L 192 159 L 198 145 Z M 181 73 L 163 92 L 163 94 L 166 97 L 170 105 L 173 115 L 173 119 L 201 119 L 200 108 L 195 92 L 189 81 Z M 66 73 L 56 87 L 50 102 L 48 111 L 48 135 L 52 150 L 59 164 L 71 178 L 75 178 L 91 161 L 78 141 L 75 123 L 76 122 L 80 125 L 121 132 L 128 128 L 130 119 L 126 113 L 119 111 L 80 118 L 76 121 L 75 116 L 78 105 L 86 92 Z M 128 46 L 128 74 L 132 74 L 142 77 L 155 85 L 174 66 L 174 64 L 166 58 L 155 52 L 139 47 Z M 118 46 L 103 48 L 94 51 L 84 56 L 72 65 L 92 85 L 102 78 L 110 75 L 118 74 Z M 104 5 L 63 20 L 44 34 L 25 56 L 8 96 L 7 142 L 23 184 L 35 200 L 58 220 L 94 236 L 143 238 L 187 221 L 221 188 L 232 168 L 239 145 L 240 103 L 224 60 L 215 47 L 190 24 L 148 6 Z M 111 10 L 152 13 L 169 19 L 192 33 L 206 46 L 223 70 L 235 110 L 231 153 L 212 190 L 198 205 L 177 220 L 137 233 L 109 233 L 91 229 L 56 211 L 27 179 L 18 160 L 12 136 L 15 92 L 34 54 L 51 36 L 68 24 L 91 14 Z" fill="#e6c200" fill-rule="evenodd" clip-rule="evenodd"/>
</svg>
