<svg xmlns="http://www.w3.org/2000/svg" x="0px" y="0px"
width="20" height="20"
viewBox="0 0 172 172"
style=" fill:#000000;"><g fill="none" fill-rule="nonzero" stroke="none" stroke-width="1" stroke-linecap="butt" stroke-linejoin="miter" stroke-miterlimit="10" stroke-dasharray="" stroke-dashoffset="0" font-family="none" font-weight="none" font-size="none" text-anchor="none" style="mix-blend-mode: normal"><path d="M0,172v-172h172v172z" fill="none"></path><g><path d="M7.1595,35.83333h157.66667v96.75h-157.66667z" fill="#eceff1"></path><path d="M7.16667,35.83333h157.66667v10.75h-157.66667zM7.16667,57.33333h157.66667v10.75h-157.66667zM7.16667,78.83333h157.66667v10.75h-157.66667zM7.16667,100.33333h157.66667v10.75h-157.66667zM7.16667,121.83333h157.66667v10.75h-157.66667z" fill="#f44336"></path><path d="M7.16667,35.83333h75.25v53.75h-75.25z" fill="#3f51b5"></path><g fill="#ffffff"><path d="M15.22917,43l1.65908,3.54033l3.71592,0.56617l-2.6875,2.75917l0.63783,3.88433l-3.32533,-1.83467l-3.32533,1.83467l0.63783,-3.88433l-2.6875,-2.75917l3.71592,-0.56617zM29.5625,43l1.65908,3.54033l3.71592,0.56617l-2.6875,2.75917l0.63783,3.88433l-3.32533,-1.83467l-3.32533,1.83467l0.63783,-3.88433l-2.6875,-2.75917l3.71592,-0.56617zM43.89583,43l1.65908,3.54033l3.71592,0.56617l-2.6875,2.75917l0.63783,3.88433l-3.32533,-1.83467l-3.32533,1.83467l0.63783,-3.88433l-2.6875,-2.75917l3.71592,-0.56617zM58.22917,43l1.65908,3.54033l3.71592,0.56617l-2.6875,2.75917l0.63783,3.88433l-3.32533,-1.83467l-3.32533,1.83467l0.63783,-3.88433l-2.6875,-2.75917l3.71592,-0.56617zM71.66667,43l1.65908,3.54033l3.71592,0.56617l-2.6875,2.75917l0.63783,3.88433l-3.32533,-1.83467l-3.32533,1.83467l0.63783,-3.88433l-2.6875,-2.75917l3.71592,-0.56617zM15.22917,71.66667l1.65908,3.54033l3.71592,0.56617l-2.6875,2.75917l0.63783,3.88433l-3.32533,-1.83467l-3.32533,1.83467l0.63783,-3.88433l-2.6875,-2.75917l3.71592,-0.56617zM29.5625,71.66667l1.65908,3.54033l3.71592,0.56617l-2.6875,2.75917l0.63783,3.88433l-3.32533,-1.83467l-3.32533,1.83467l0.63783,-3.88433l-2.6875,-2.75917l3.71592,-0.56617zM43.89583,71.66667l1.65908,3.54033l3.71592,0.56617l-2.6875,2.75917l0.63783,3.88433l-3.32533,-1.83467l-3.32533,1.83467l0.63783,-3.88433l-2.6875,-2.75917l3.71592,-0.56617zM58.22917,71.66667l1.65908,3.54033l3.71592,0.56617l-2.6875,2.75917l0.63783,3.88433l-3.32533,-1.83467l-3.32533,1.83467l0.63783,-3.88433l-2.6875,-2.75917l3.71592,-0.56617zM71.66667,71.66667l1.65908,3.54033l3.71592,0.56617l-2.6875,2.75917l0.63783,3.88433l-3.32533,-1.83467l-3.32533,1.83467l0.63783,-3.88433l-2.6875,-2.75917l3.71592,-0.56617zM18.8125,57.33333l1.65908,3.54033l3.71592,0.56617l-2.6875,2.75917l0.63783,3.88433l-3.32533,-1.83467l-3.32533,1.83467l0.63783,-3.88433l-2.6875,-2.75917l3.71592,-0.56617zM33.14583,57.33333l1.65908,3.54033l3.71592,0.56617l-2.6875,2.75917l0.63783,3.88433l-3.32533,-1.83467l-3.32533,1.83467l0.63783,-3.88433l-2.6875,-2.75917l3.71592,-0.56617zM47.47917,57.33333l1.65908,3.54033l3.71592,0.56617l-2.6875,2.75917l0.63783,3.88433l-3.32533,-1.83467l-3.32533,1.83467l0.63783,-3.88433l-2.6875,-2.75917l3.71592,-0.56617zM61.8125,57.33333l1.65908,3.54033l3.71592,0.56617l-2.6875,2.75917l0.63783,3.88433l-3.32533,-1.83467l-3.32533,1.83467l0.63783,-3.88433l-2.6875,-2.75917l3.71592,-0.56617zM75.25,57.33333l1.65908,3.54033l3.71592,0.56617l-2.6875,2.75917l0.63783,3.88433l-3.32533,-1.83467l-3.32533,1.83467l0.63783,-3.88433l-2.6875,-2.75917l3.71592,-0.56617z"></path></g></g></g></svg>