<svg xmlns="http://www.w3.org/2000/svg" width="440" height="424" viewBox="0 0 440 424" fill="none">
  <path d="M 141 390 L 141 396 L 140 397 L 140 423 L 293 423 L 293 394 L 292 393 L 292 388 L 291 387 L 291 384 L 290 383 L 289 378 L 287 375 L 287 373 L 285 369 L 283 367 L 282 364 L 277 358 L 277 357 L 265 345 L 264 345 L 261 342 L 246 334 L 244 334 L 243 333 L 241 333 L 237 331 L 234 331 L 233 332 L 227 333 L 226 334 L 208 334 L 207 333 L 203 333 L 202 332 L 197 331 L 196 332 L 193 332 L 187 335 L 185 335 L 179 338 L 177 340 L 174 341 L 171 344 L 170 344 L 167 347 L 166 347 L 158 355 L 158 356 L 152 363 L 151 366 L 149 368 L 146 374 L 146 376 L 143 382 L 142 389 Z M 291 359 L 298 373 L 298 375 L 299 376 L 299 378 L 301 382 L 301 385 L 302 386 L 302 389 L 303 390 L 303 396 L 304 397 L 304 407 L 439 407 L 439 383 L 438 382 L 438 375 L 437 374 L 437 371 L 436 370 L 436 367 L 435 366 L 434 361 L 428 349 L 426 347 L 424 343 L 419 338 L 419 337 L 409 328 L 408 328 L 405 325 L 402 324 L 400 322 L 394 319 L 392 319 L 389 317 L 387 317 L 386 316 L 379 315 L 378 316 L 372 317 L 371 318 L 353 318 L 352 317 L 349 317 L 345 315 L 342 315 L 341 316 L 338 316 L 332 319 L 330 319 L 324 322 L 322 324 L 315 328 L 305 337 L 305 338 L 300 343 L 300 344 L 296 349 Z M 5 361 L 5 363 L 3 367 L 3 370 L 2 371 L 2 374 L 1 375 L 1 382 L 0 383 L 0 407 L 129 407 L 129 404 L 130 403 L 130 392 L 131 391 L 132 383 L 133 382 L 135 374 L 142 360 L 146 355 L 143 349 L 139 344 L 139 343 L 129 332 L 128 332 L 124 328 L 123 328 L 115 322 L 109 319 L 107 319 L 104 317 L 98 316 L 97 315 L 94 315 L 93 316 L 87 317 L 86 318 L 68 318 L 67 317 L 64 317 L 60 315 L 57 315 L 56 316 L 50 317 L 47 319 L 45 319 L 39 322 L 37 324 L 34 325 L 31 328 L 30 328 L 26 332 L 25 332 L 15 343 L 15 344 L 11 349 Z M 215 241 L 214 242 L 208 242 L 207 243 L 204 243 L 203 244 L 201 244 L 195 247 L 193 249 L 192 249 L 183 258 L 177 270 L 175 284 L 176 285 L 176 292 L 177 293 L 178 298 L 182 306 L 189 314 L 190 314 L 196 319 L 200 321 L 205 322 L 206 323 L 210 323 L 211 324 L 222 324 L 223 323 L 227 323 L 228 322 L 233 321 L 239 318 L 241 316 L 242 316 L 250 308 L 256 297 L 256 294 L 257 293 L 257 290 L 258 289 L 258 277 L 257 276 L 257 272 L 256 271 L 256 269 L 255 268 L 255 266 L 253 262 L 251 260 L 249 256 L 244 251 L 243 251 L 240 248 L 230 243 Z M 359 225 L 358 226 L 352 226 L 351 227 L 346 228 L 340 231 L 329 241 L 329 242 L 325 247 L 325 249 L 323 252 L 322 258 L 321 259 L 321 274 L 322 275 L 322 278 L 323 279 L 324 284 L 327 288 L 328 291 L 337 300 L 348 306 L 356 307 L 357 308 L 367 308 L 368 307 L 376 306 L 384 302 L 386 300 L 387 300 L 396 291 L 402 279 L 402 275 L 403 274 L 403 259 L 402 258 L 402 255 L 401 254 L 401 252 L 400 251 L 399 247 L 397 245 L 395 241 L 387 233 L 378 228 L 376 228 L 372 226 Z M 74 225 L 73 226 L 67 226 L 66 227 L 61 228 L 55 231 L 53 233 L 52 233 L 44 241 L 44 242 L 39 249 L 39 251 L 37 255 L 37 258 L 36 259 L 36 275 L 37 276 L 37 279 L 39 282 L 39 284 L 41 288 L 43 290 L 43 291 L 52 300 L 63 306 L 71 307 L 72 308 L 82 308 L 83 307 L 87 307 L 88 306 L 93 305 L 99 302 L 101 300 L 102 300 L 111 291 L 112 288 L 115 284 L 115 282 L 117 278 L 117 275 L 118 274 L 118 259 L 117 258 L 116 252 L 112 244 L 110 242 L 110 241 L 103 234 L 102 234 L 99 231 L 93 228 L 88 227 L 87 226 Z M 86 150 L 86 159 L 85 160 L 85 182 L 239 182 L 239 156 L 238 155 L 238 149 L 237 148 L 236 141 L 233 135 L 233 133 L 229 125 L 227 123 L 226 120 L 223 117 L 223 116 L 210 103 L 209 103 L 206 100 L 203 99 L 201 97 L 193 93 L 191 93 L 188 91 L 182 90 L 181 89 L 177 90 L 176 91 L 173 91 L 172 92 L 168 92 L 167 93 L 158 93 L 157 92 L 152 92 L 151 91 L 148 91 L 147 90 L 143 89 L 142 90 L 136 91 L 133 93 L 131 93 L 125 96 L 123 98 L 120 99 L 114 104 L 113 104 L 102 115 L 102 116 L 99 119 L 99 120 L 97 122 L 96 125 L 94 127 L 92 131 L 92 133 L 90 136 L 90 138 L 88 142 L 87 149 Z M 256 17 L 256 190 L 260 195 L 262 195 L 263 196 L 267 196 L 271 194 L 274 189 L 274 110 L 306 94 L 308 94 L 333 81 L 335 81 L 358 69 L 360 69 L 361 67 L 349 61 L 347 61 L 322 48 L 320 48 L 295 35 L 293 35 L 268 22 L 266 22 Z M 154 0 L 153 1 L 147 2 L 141 5 L 135 10 L 134 10 L 128 17 L 124 24 L 124 26 L 122 30 L 122 33 L 121 34 L 121 48 L 122 49 L 122 52 L 123 53 L 123 55 L 124 56 L 124 58 L 126 62 L 132 69 L 132 70 L 138 75 L 150 81 L 154 81 L 155 82 L 170 82 L 171 81 L 177 80 L 185 76 L 188 73 L 189 73 L 197 64 L 201 56 L 202 50 L 203 49 L 203 33 L 202 32 L 201 26 L 197 18 L 194 15 L 194 14 L 185 6 L 177 2 L 171 1 L 170 0 Z" fill="#e6c200" fill-rule="evenodd" clip-rule="evenodd"/>
</svg>
