<svg xmlns="http://www.w3.org/2000/svg" width="210" height="183" viewBox="0 0 210 183" fill="#e6c200">
  <path d="M 63 40 L 55 48 L 55 49 L 53 51 L 53 52 L 50 55 L 50 56 L 49 57 L 49 58 L 48 59 L 48 60 L 47 61 L 47 62 L 46 63 L 46 64 L 45 65 L 45 67 L 44 68 L 44 71 L 43 72 L 43 73 L 42 74 L 42 77 L 41 78 L 41 99 L 42 100 L 42 104 L 43 105 L 43 106 L 44 107 L 44 109 L 45 110 L 45 112 L 46 113 L 46 115 L 47 116 L 47 117 L 49 119 L 49 120 L 50 121 L 50 122 L 51 123 L 51 124 L 54 127 L 54 128 L 65 139 L 66 139 L 69 142 L 70 142 L 71 143 L 72 143 L 73 144 L 74 144 L 75 145 L 76 145 L 78 147 L 80 147 L 81 148 L 83 148 L 84 149 L 87 149 L 88 150 L 89 150 L 90 151 L 94 151 L 95 152 L 113 152 L 114 151 L 118 151 L 119 150 L 120 150 L 121 149 L 124 149 L 125 148 L 128 148 L 129 147 L 130 147 L 131 146 L 132 146 L 134 144 L 135 144 L 136 143 L 138 143 L 139 144 L 143 144 L 144 145 L 145 145 L 146 146 L 149 146 L 150 147 L 152 147 L 153 148 L 157 148 L 158 149 L 162 149 L 163 150 L 164 150 L 165 151 L 166 150 L 166 149 L 165 148 L 165 146 L 164 145 L 164 142 L 163 141 L 163 138 L 162 137 L 162 133 L 161 132 L 161 131 L 160 130 L 160 128 L 159 127 L 159 123 L 158 122 L 159 121 L 159 119 L 161 117 L 161 116 L 162 115 L 162 114 L 163 113 L 163 111 L 164 110 L 164 107 L 165 106 L 165 104 L 166 103 L 166 100 L 167 99 L 167 78 L 166 77 L 166 74 L 165 73 L 165 72 L 164 71 L 164 68 L 163 67 L 163 65 L 162 64 L 162 62 L 160 60 L 160 59 L 159 58 L 159 57 L 158 56 L 158 55 L 157 54 L 157 53 L 153 49 L 153 48 L 145 40 L 144 40 L 141 37 L 140 37 L 138 35 L 137 35 L 136 34 L 135 34 L 134 33 L 133 33 L 131 31 L 129 31 L 128 30 L 126 30 L 125 29 L 123 29 L 122 28 L 121 28 L 120 27 L 117 27 L 116 26 L 108 26 L 107 25 L 101 25 L 100 26 L 92 26 L 91 27 L 88 27 L 87 28 L 86 28 L 85 29 L 83 29 L 82 30 L 80 30 L 79 31 L 77 31 L 75 33 L 74 33 L 73 34 L 72 34 L 71 35 L 70 35 L 67 38 L 66 38 L 64 40 Z M 126 80 L 127 80 L 128 79 L 129 79 L 130 78 L 136 78 L 137 79 L 138 79 L 139 80 L 140 80 L 142 82 L 142 83 L 143 84 L 143 85 L 144 86 L 144 92 L 143 93 L 143 94 L 142 95 L 142 96 L 141 97 L 140 97 L 139 98 L 138 98 L 137 99 L 135 99 L 134 100 L 132 100 L 131 99 L 129 99 L 128 98 L 127 98 L 124 95 L 124 94 L 123 93 L 123 91 L 122 90 L 122 88 L 123 87 L 123 85 L 124 84 L 124 83 L 125 82 L 125 81 Z M 101 78 L 107 78 L 108 79 L 109 79 L 110 80 L 111 80 L 113 82 L 113 83 L 114 84 L 114 86 L 115 87 L 115 91 L 114 92 L 114 94 L 110 98 L 109 98 L 108 99 L 106 99 L 105 100 L 103 100 L 102 99 L 100 99 L 99 98 L 98 98 L 95 95 L 95 94 L 94 93 L 94 92 L 93 91 L 93 87 L 94 86 L 94 84 L 95 83 L 95 82 L 97 80 L 98 80 L 99 79 L 100 79 Z M 72 78 L 78 78 L 79 79 L 80 79 L 81 80 L 82 80 L 83 81 L 83 82 L 84 83 L 84 84 L 85 85 L 85 87 L 86 88 L 86 90 L 85 91 L 85 93 L 84 94 L 84 95 L 81 98 L 80 98 L 79 99 L 76 99 L 75 100 L 74 100 L 73 99 L 71 99 L 70 98 L 69 98 L 68 97 L 67 97 L 66 96 L 66 95 L 65 94 L 65 93 L 64 92 L 64 86 L 65 85 L 65 84 L 66 83 L 66 82 L 68 80 L 69 80 L 70 79 L 71 79 Z M 91 0 L 90 1 L 85 1 L 84 2 L 80 2 L 78 4 L 75 4 L 74 5 L 72 5 L 71 6 L 69 6 L 68 7 L 67 7 L 65 9 L 64 9 L 63 10 L 61 10 L 60 11 L 59 11 L 57 13 L 56 13 L 54 15 L 53 15 L 52 16 L 51 16 L 50 17 L 50 18 L 49 19 L 48 19 L 47 20 L 46 20 L 44 22 L 44 23 L 43 24 L 42 24 L 39 27 L 39 28 L 38 29 L 37 29 L 36 30 L 36 31 L 34 33 L 34 34 L 33 35 L 32 35 L 32 36 L 31 37 L 31 38 L 29 40 L 29 41 L 26 44 L 26 45 L 25 46 L 25 48 L 24 49 L 24 50 L 22 52 L 22 54 L 21 55 L 21 57 L 20 58 L 20 60 L 19 61 L 19 62 L 17 64 L 8 64 L 7 65 L 5 65 L 1 69 L 1 70 L 0 71 L 0 107 L 1 108 L 1 109 L 4 112 L 5 112 L 6 113 L 20 113 L 23 116 L 23 117 L 24 118 L 24 120 L 25 121 L 25 123 L 26 124 L 26 125 L 27 126 L 27 127 L 29 129 L 29 130 L 30 131 L 30 132 L 31 133 L 31 134 L 32 135 L 32 136 L 35 139 L 35 140 L 36 141 L 36 142 L 37 142 L 40 145 L 40 146 L 47 153 L 48 153 L 50 155 L 50 156 L 51 156 L 53 158 L 54 158 L 57 161 L 58 161 L 59 162 L 60 162 L 61 163 L 62 163 L 63 164 L 64 164 L 66 166 L 67 166 L 68 167 L 70 167 L 71 168 L 73 168 L 74 169 L 75 169 L 76 170 L 77 170 L 78 171 L 81 171 L 82 172 L 86 172 L 87 173 L 92 173 L 94 175 L 94 176 L 96 178 L 97 178 L 100 181 L 108 181 L 110 179 L 111 179 L 114 176 L 114 174 L 115 173 L 115 167 L 114 166 L 114 164 L 111 161 L 110 161 L 109 160 L 108 160 L 107 159 L 101 159 L 100 160 L 99 160 L 98 161 L 97 161 L 93 165 L 91 165 L 90 164 L 87 164 L 86 163 L 83 163 L 82 162 L 79 162 L 78 161 L 76 161 L 75 160 L 74 160 L 73 159 L 72 159 L 71 158 L 70 158 L 69 157 L 68 157 L 67 156 L 66 156 L 64 154 L 63 154 L 61 152 L 60 152 L 59 151 L 58 151 L 57 150 L 57 149 L 56 148 L 55 148 L 54 147 L 53 147 L 51 145 L 51 144 L 49 142 L 48 142 L 47 141 L 47 140 L 42 135 L 42 134 L 41 133 L 41 132 L 39 130 L 39 129 L 37 127 L 37 126 L 36 125 L 36 124 L 35 123 L 35 122 L 34 121 L 34 120 L 33 119 L 33 118 L 32 117 L 32 115 L 31 114 L 31 112 L 30 111 L 30 108 L 29 107 L 29 105 L 28 104 L 28 100 L 27 99 L 27 79 L 28 78 L 28 74 L 29 73 L 29 71 L 30 70 L 30 67 L 31 66 L 31 63 L 32 62 L 32 60 L 33 59 L 33 58 L 35 56 L 35 55 L 36 54 L 36 52 L 37 51 L 37 50 L 40 47 L 40 46 L 42 44 L 42 43 L 46 39 L 46 38 L 49 35 L 50 35 L 50 34 L 53 31 L 54 31 L 59 26 L 60 26 L 61 25 L 62 25 L 65 22 L 66 22 L 67 21 L 68 21 L 69 20 L 70 20 L 71 19 L 72 19 L 73 18 L 74 18 L 75 17 L 77 17 L 78 16 L 80 16 L 81 15 L 84 15 L 85 14 L 88 14 L 89 13 L 91 13 L 92 12 L 116 12 L 117 13 L 119 13 L 120 14 L 123 14 L 124 15 L 127 15 L 128 16 L 130 16 L 131 17 L 133 17 L 134 18 L 135 18 L 136 19 L 137 19 L 138 20 L 139 20 L 140 21 L 141 21 L 142 22 L 143 22 L 146 25 L 147 25 L 148 26 L 149 26 L 150 27 L 151 27 L 152 28 L 152 29 L 154 31 L 155 31 L 162 38 L 162 39 L 167 44 L 167 45 L 168 46 L 168 47 L 171 50 L 171 51 L 172 52 L 172 53 L 173 54 L 173 56 L 174 57 L 174 58 L 176 60 L 176 62 L 177 63 L 177 66 L 178 67 L 178 69 L 179 70 L 179 74 L 180 75 L 180 77 L 181 78 L 181 99 L 180 100 L 180 103 L 179 104 L 179 107 L 178 108 L 178 111 L 177 112 L 177 113 L 202 113 L 203 112 L 204 112 L 207 109 L 207 108 L 208 107 L 208 71 L 207 70 L 207 69 L 203 65 L 201 65 L 200 64 L 190 64 L 189 63 L 189 61 L 188 60 L 188 58 L 187 57 L 187 54 L 186 53 L 186 52 L 184 50 L 184 49 L 183 48 L 183 46 L 182 45 L 182 44 L 179 41 L 179 40 L 178 39 L 178 38 L 176 36 L 176 35 L 175 35 L 174 34 L 174 33 L 173 32 L 173 31 L 171 29 L 170 29 L 169 28 L 169 27 L 166 24 L 165 24 L 164 23 L 164 22 L 162 20 L 161 20 L 157 16 L 156 16 L 155 15 L 154 15 L 152 13 L 151 13 L 149 11 L 148 11 L 147 10 L 146 10 L 145 9 L 143 9 L 141 7 L 140 7 L 139 6 L 137 6 L 136 5 L 134 5 L 133 4 L 131 4 L 130 3 L 129 3 L 128 2 L 124 2 L 123 1 L 118 1 L 117 0 Z" fill="#e6c200" fill-rule="evenodd"/>
</svg>