<svg xmlns="http://www.w3.org/2000/svg" viewBox="0 0 209 209" width="209" height="209" fill="#e6c200">
  <path fill-rule="evenodd" d="M 86 80 L 85 81 L 85 84 L 86 85 L 86 86 L 88 88 L 88 89 L 89 90 L 89 91 L 90 92 L 90 93 L 91 94 L 91 95 L 93 97 L 93 98 L 94 99 L 94 100 L 95 101 L 95 102 L 96 103 L 96 104 L 97 105 L 97 107 L 96 108 L 96 109 L 94 111 L 87 111 L 85 113 L 85 114 L 86 115 L 94 115 L 95 116 L 95 117 L 96 118 L 96 119 L 98 121 L 99 121 L 100 122 L 101 122 L 102 123 L 107 123 L 108 122 L 109 122 L 110 121 L 111 121 L 113 119 L 113 118 L 114 117 L 114 110 L 113 109 L 113 108 L 110 105 L 109 105 L 108 104 L 102 104 L 99 101 L 99 100 L 98 99 L 98 98 L 97 97 L 97 96 L 95 94 L 95 93 L 94 92 L 94 91 L 93 90 L 93 89 L 92 88 L 92 87 L 90 85 L 90 84 L 89 83 L 89 82 L 87 80 Z M 104 108 L 105 107 L 106 108 L 107 108 L 110 111 L 110 116 L 107 119 L 102 119 L 99 116 L 99 111 L 102 108 Z M 99 61 L 98 62 L 93 62 L 92 63 L 89 63 L 88 64 L 87 64 L 86 65 L 84 65 L 83 66 L 82 66 L 81 67 L 80 67 L 79 68 L 78 68 L 76 70 L 75 70 L 73 72 L 72 72 L 63 81 L 63 82 L 61 84 L 61 85 L 59 87 L 59 88 L 58 89 L 58 90 L 57 91 L 57 92 L 56 93 L 56 95 L 55 96 L 55 98 L 54 99 L 54 102 L 53 103 L 53 109 L 52 110 L 52 117 L 53 118 L 53 124 L 54 125 L 54 128 L 55 129 L 55 131 L 56 132 L 56 133 L 57 134 L 57 136 L 58 137 L 58 138 L 60 140 L 60 141 L 62 143 L 62 144 L 65 147 L 65 148 L 70 153 L 71 153 L 74 156 L 75 156 L 77 158 L 78 158 L 79 159 L 80 159 L 81 160 L 82 160 L 83 161 L 84 161 L 85 162 L 87 162 L 88 163 L 90 163 L 91 164 L 94 164 L 95 165 L 103 165 L 104 166 L 105 166 L 106 165 L 114 165 L 115 164 L 118 164 L 119 163 L 122 163 L 123 162 L 124 162 L 125 161 L 126 161 L 127 160 L 128 160 L 129 159 L 130 159 L 131 158 L 132 158 L 134 156 L 135 156 L 138 153 L 139 153 L 144 148 L 144 147 L 147 144 L 147 143 L 149 141 L 149 140 L 151 138 L 151 137 L 152 136 L 152 134 L 153 133 L 153 132 L 154 131 L 154 129 L 155 128 L 155 125 L 156 124 L 156 118 L 157 117 L 157 110 L 156 109 L 156 103 L 155 102 L 155 99 L 154 98 L 154 96 L 153 95 L 153 93 L 152 92 L 152 91 L 151 90 L 151 89 L 150 88 L 150 87 L 148 85 L 148 84 L 146 82 L 146 81 L 137 72 L 136 72 L 134 70 L 133 70 L 131 68 L 130 68 L 129 67 L 128 67 L 127 66 L 126 66 L 125 65 L 123 65 L 122 64 L 120 64 L 119 63 L 117 63 L 116 62 L 111 62 L 110 61 Z M 98 66 L 99 65 L 102 65 L 103 66 L 103 68 L 104 69 L 105 69 L 106 68 L 106 66 L 107 65 L 111 65 L 112 66 L 116 66 L 117 67 L 118 67 L 119 68 L 119 69 L 118 70 L 120 72 L 121 72 L 122 71 L 122 70 L 123 69 L 124 69 L 125 70 L 126 70 L 127 71 L 128 71 L 129 72 L 130 72 L 133 75 L 133 77 L 132 78 L 134 80 L 135 80 L 137 78 L 143 84 L 143 85 L 145 87 L 143 89 L 143 91 L 144 92 L 146 92 L 147 91 L 148 92 L 148 93 L 149 94 L 149 95 L 150 96 L 150 98 L 151 99 L 151 102 L 148 105 L 148 106 L 149 107 L 151 107 L 153 109 L 153 118 L 151 120 L 150 119 L 148 121 L 148 122 L 149 123 L 150 123 L 151 124 L 151 127 L 150 128 L 150 130 L 149 131 L 149 133 L 147 135 L 143 135 L 143 138 L 144 138 L 145 139 L 145 140 L 142 143 L 142 144 L 137 149 L 135 147 L 133 147 L 133 148 L 132 149 L 133 150 L 133 152 L 131 154 L 130 154 L 129 155 L 128 155 L 126 157 L 123 157 L 121 155 L 119 155 L 119 159 L 118 160 L 115 160 L 114 161 L 107 161 L 106 160 L 106 158 L 103 158 L 103 160 L 102 161 L 95 161 L 94 160 L 91 160 L 90 159 L 90 158 L 91 157 L 90 156 L 90 155 L 88 155 L 86 157 L 83 157 L 81 155 L 80 155 L 79 154 L 78 154 L 76 152 L 76 150 L 77 149 L 76 148 L 76 147 L 74 147 L 73 148 L 71 148 L 67 144 L 67 143 L 64 140 L 64 139 L 65 138 L 66 138 L 66 135 L 62 135 L 60 133 L 60 131 L 59 130 L 59 128 L 58 127 L 58 124 L 59 123 L 60 123 L 61 122 L 61 121 L 59 119 L 58 120 L 56 118 L 56 109 L 58 107 L 60 107 L 61 106 L 61 105 L 58 102 L 58 99 L 59 98 L 59 96 L 60 95 L 60 94 L 61 93 L 61 92 L 62 91 L 63 92 L 65 92 L 66 91 L 66 89 L 64 87 L 66 85 L 66 84 L 72 78 L 74 80 L 75 80 L 77 78 L 76 77 L 76 75 L 79 72 L 80 72 L 81 71 L 82 71 L 83 70 L 84 70 L 85 69 L 86 69 L 87 70 L 87 71 L 88 72 L 89 72 L 91 70 L 90 69 L 90 68 L 91 67 L 92 67 L 93 66 Z M 101 29 L 100 30 L 97 30 L 96 31 L 95 31 L 94 32 L 93 32 L 87 38 L 87 39 L 85 41 L 85 43 L 84 44 L 84 47 L 83 48 L 83 51 L 81 53 L 80 53 L 79 54 L 77 54 L 76 55 L 75 55 L 74 56 L 73 56 L 71 58 L 70 58 L 69 59 L 64 54 L 66 52 L 66 50 L 67 49 L 67 48 L 66 47 L 66 46 L 65 45 L 65 44 L 61 40 L 60 40 L 59 39 L 56 39 L 55 40 L 54 40 L 48 46 L 47 46 L 41 52 L 40 52 L 37 55 L 37 60 L 39 62 L 39 63 L 43 67 L 48 67 L 49 66 L 50 66 L 51 65 L 54 68 L 54 69 L 55 70 L 55 71 L 54 72 L 54 73 L 51 76 L 51 77 L 49 79 L 49 80 L 48 81 L 48 82 L 46 84 L 46 86 L 45 87 L 45 88 L 44 89 L 44 90 L 43 91 L 43 93 L 42 94 L 42 97 L 41 98 L 41 101 L 40 102 L 40 124 L 41 125 L 41 129 L 42 130 L 42 133 L 43 134 L 43 136 L 44 137 L 44 138 L 45 139 L 45 140 L 46 141 L 46 142 L 47 143 L 47 144 L 48 145 L 48 146 L 49 147 L 49 148 L 51 150 L 51 151 L 55 155 L 55 156 L 62 163 L 63 163 L 66 166 L 67 166 L 69 168 L 70 168 L 72 170 L 73 170 L 74 171 L 75 171 L 76 172 L 77 172 L 78 173 L 79 173 L 80 174 L 82 174 L 83 175 L 85 175 L 86 176 L 89 176 L 90 177 L 94 177 L 95 178 L 114 178 L 115 177 L 119 177 L 120 176 L 123 176 L 124 175 L 126 175 L 127 174 L 129 174 L 130 173 L 131 173 L 132 172 L 133 172 L 134 171 L 135 171 L 136 170 L 137 170 L 139 168 L 140 168 L 142 166 L 143 166 L 146 163 L 147 163 L 155 155 L 155 154 L 158 151 L 158 150 L 160 148 L 160 147 L 161 146 L 161 145 L 162 144 L 162 143 L 163 142 L 163 141 L 164 140 L 164 139 L 165 138 L 165 136 L 166 135 L 166 133 L 167 132 L 167 130 L 168 129 L 168 125 L 169 124 L 169 102 L 168 101 L 168 98 L 167 97 L 167 94 L 166 93 L 166 91 L 165 90 L 165 89 L 164 88 L 164 87 L 163 86 L 163 84 L 161 82 L 161 81 L 160 80 L 160 79 L 158 77 L 158 76 L 156 74 L 156 73 L 154 71 L 154 70 L 155 69 L 155 68 L 158 65 L 159 66 L 160 66 L 161 67 L 166 67 L 170 63 L 170 62 L 172 60 L 172 55 L 168 51 L 167 51 L 162 46 L 161 46 L 155 40 L 154 40 L 153 39 L 150 39 L 149 40 L 148 40 L 144 44 L 144 45 L 143 46 L 143 47 L 142 48 L 142 49 L 143 50 L 143 52 L 145 54 L 140 59 L 139 58 L 138 58 L 136 56 L 135 56 L 134 55 L 133 55 L 132 54 L 130 54 L 129 53 L 128 53 L 126 51 L 126 48 L 125 47 L 125 44 L 124 43 L 124 41 L 122 39 L 122 38 L 116 32 L 115 32 L 114 31 L 113 31 L 112 30 L 109 30 L 108 29 Z M 148 57 L 149 57 L 152 60 L 153 60 L 155 62 L 154 63 L 154 64 L 151 67 L 150 67 L 144 61 Z M 60 57 L 61 57 L 65 61 L 59 67 L 58 67 L 55 64 L 55 63 L 54 62 L 56 60 L 57 60 Z M 99 53 L 100 52 L 110 52 L 111 53 L 116 53 L 117 54 L 120 54 L 121 55 L 124 55 L 125 56 L 126 56 L 127 57 L 129 57 L 130 58 L 131 58 L 132 59 L 133 59 L 134 60 L 135 60 L 137 62 L 138 62 L 140 64 L 141 64 L 153 76 L 153 77 L 156 80 L 156 81 L 157 82 L 157 83 L 159 85 L 159 86 L 160 87 L 160 89 L 161 90 L 161 91 L 162 92 L 162 94 L 163 95 L 163 97 L 164 98 L 164 101 L 165 102 L 165 109 L 166 110 L 166 117 L 165 118 L 165 125 L 164 126 L 164 129 L 163 130 L 163 132 L 162 133 L 162 135 L 161 136 L 161 137 L 160 138 L 160 139 L 159 140 L 159 141 L 158 142 L 158 143 L 157 144 L 157 145 L 155 147 L 155 148 L 152 151 L 152 152 L 143 161 L 142 161 L 139 164 L 138 164 L 136 166 L 135 166 L 134 167 L 133 167 L 132 168 L 131 168 L 130 169 L 129 169 L 128 170 L 127 170 L 126 171 L 124 171 L 123 172 L 120 172 L 119 173 L 116 173 L 115 174 L 94 174 L 93 173 L 90 173 L 89 172 L 86 172 L 85 171 L 84 171 L 83 170 L 81 170 L 80 169 L 79 169 L 78 168 L 77 168 L 76 167 L 75 167 L 74 166 L 73 166 L 71 164 L 70 164 L 67 161 L 66 161 L 57 152 L 57 151 L 54 148 L 54 147 L 52 145 L 52 144 L 51 143 L 51 142 L 50 141 L 50 140 L 49 139 L 49 138 L 48 137 L 48 136 L 47 135 L 47 133 L 46 132 L 46 130 L 45 129 L 45 125 L 44 124 L 44 118 L 43 117 L 43 110 L 44 109 L 44 102 L 45 101 L 45 98 L 46 97 L 46 95 L 47 94 L 47 92 L 48 91 L 48 89 L 49 88 L 49 87 L 50 86 L 50 85 L 52 83 L 52 82 L 53 81 L 53 80 L 56 77 L 56 76 L 68 64 L 69 64 L 71 62 L 72 62 L 73 61 L 74 61 L 76 59 L 77 59 L 78 58 L 79 58 L 80 57 L 82 57 L 83 56 L 85 56 L 86 55 L 88 55 L 89 54 L 92 54 L 93 53 Z M 151 43 L 152 43 L 156 47 L 157 47 L 163 53 L 164 53 L 168 57 L 168 59 L 164 63 L 162 63 L 157 58 L 156 58 L 150 52 L 149 52 L 146 49 L 147 48 L 147 47 Z M 57 43 L 58 43 L 62 47 L 62 48 L 63 49 L 60 52 L 59 52 L 53 58 L 52 58 L 47 63 L 45 63 L 41 59 L 41 57 L 45 53 L 46 53 L 52 47 L 53 47 Z M 100 34 L 101 33 L 108 33 L 109 34 L 111 34 L 112 35 L 113 35 L 120 42 L 120 43 L 121 44 L 121 47 L 122 48 L 122 49 L 121 50 L 117 50 L 116 49 L 109 49 L 108 48 L 101 48 L 100 49 L 93 49 L 92 50 L 88 50 L 87 49 L 87 48 L 88 47 L 88 44 L 89 43 L 89 42 L 91 40 L 91 39 L 92 38 L 93 38 L 96 35 L 97 35 L 98 34 Z M 100 0 L 99 1 L 90 1 L 89 2 L 84 2 L 83 3 L 80 3 L 79 4 L 76 4 L 75 5 L 73 5 L 72 6 L 70 6 L 69 7 L 68 7 L 67 8 L 65 8 L 64 9 L 63 9 L 62 10 L 61 10 L 60 11 L 59 11 L 58 12 L 57 12 L 56 13 L 55 13 L 54 14 L 53 14 L 52 15 L 51 15 L 49 17 L 48 17 L 46 19 L 45 19 L 43 21 L 42 21 L 37 26 L 36 26 L 26 36 L 26 37 L 22 41 L 22 42 L 19 45 L 19 46 L 17 48 L 17 49 L 16 50 L 16 51 L 14 53 L 14 54 L 13 55 L 13 56 L 12 57 L 12 58 L 11 59 L 11 60 L 10 61 L 10 62 L 9 63 L 9 65 L 8 66 L 8 67 L 7 68 L 7 70 L 6 71 L 6 73 L 5 74 L 5 77 L 4 78 L 4 81 L 3 82 L 3 86 L 2 87 L 2 93 L 1 94 L 1 116 L 2 117 L 2 123 L 3 124 L 3 127 L 4 128 L 4 131 L 5 132 L 5 135 L 6 136 L 6 138 L 7 139 L 7 141 L 8 142 L 8 143 L 9 144 L 9 146 L 10 147 L 10 148 L 11 149 L 11 150 L 12 151 L 12 152 L 13 153 L 13 154 L 14 155 L 14 156 L 16 158 L 16 159 L 17 160 L 17 161 L 19 163 L 19 164 L 22 167 L 22 168 L 25 171 L 25 172 L 37 184 L 38 184 L 42 188 L 43 188 L 46 191 L 47 191 L 48 192 L 49 192 L 51 194 L 52 194 L 53 195 L 54 195 L 56 197 L 57 197 L 58 198 L 59 198 L 60 199 L 61 199 L 62 200 L 64 200 L 65 201 L 66 201 L 67 202 L 69 202 L 70 203 L 72 203 L 73 204 L 75 204 L 76 205 L 78 205 L 79 206 L 83 206 L 84 207 L 88 207 L 89 208 L 121 208 L 122 207 L 126 207 L 127 206 L 131 206 L 132 205 L 134 205 L 135 204 L 137 204 L 138 203 L 140 203 L 141 202 L 143 202 L 144 201 L 145 201 L 146 200 L 148 200 L 149 199 L 150 199 L 151 198 L 152 198 L 153 197 L 154 197 L 155 196 L 156 196 L 158 194 L 159 194 L 160 193 L 161 193 L 163 191 L 164 191 L 166 189 L 167 189 L 171 185 L 172 185 L 186 171 L 186 170 L 189 167 L 189 166 L 192 163 L 192 162 L 193 161 L 193 160 L 195 158 L 195 157 L 196 156 L 196 155 L 197 154 L 197 153 L 198 152 L 198 151 L 199 150 L 199 149 L 200 148 L 200 147 L 201 146 L 201 145 L 202 144 L 202 142 L 203 141 L 203 140 L 204 139 L 204 137 L 205 136 L 205 133 L 206 132 L 206 129 L 207 128 L 207 125 L 208 124 L 208 86 L 207 85 L 207 81 L 206 80 L 206 77 L 205 76 L 205 74 L 204 73 L 204 71 L 203 70 L 203 68 L 202 67 L 202 65 L 201 64 L 201 63 L 200 62 L 200 61 L 199 60 L 199 59 L 198 58 L 198 57 L 197 56 L 197 55 L 196 54 L 196 53 L 195 52 L 195 51 L 193 49 L 193 48 L 191 46 L 191 45 L 189 43 L 189 42 L 185 38 L 185 37 L 173 25 L 172 25 L 168 21 L 167 21 L 164 18 L 163 18 L 162 17 L 161 17 L 159 15 L 158 15 L 157 14 L 156 14 L 154 12 L 153 12 L 152 11 L 151 11 L 150 10 L 148 10 L 147 9 L 146 9 L 145 8 L 144 8 L 143 7 L 141 7 L 140 6 L 138 6 L 137 5 L 135 5 L 134 4 L 131 4 L 130 3 L 127 3 L 126 2 L 121 2 L 120 1 L 111 1 L 110 0 Z M 102 6 L 103 5 L 107 5 L 108 6 L 119 6 L 120 7 L 125 7 L 126 8 L 129 8 L 130 9 L 133 9 L 134 10 L 136 10 L 137 11 L 139 11 L 140 12 L 141 12 L 142 13 L 144 13 L 145 14 L 146 14 L 147 15 L 148 15 L 149 16 L 150 16 L 151 17 L 152 17 L 153 18 L 154 18 L 156 20 L 157 20 L 159 22 L 160 22 L 162 24 L 163 24 L 166 27 L 167 27 L 183 43 L 183 44 L 186 47 L 186 48 L 188 50 L 188 51 L 190 53 L 190 54 L 191 55 L 191 56 L 193 58 L 193 59 L 194 60 L 194 61 L 195 62 L 195 64 L 196 65 L 196 66 L 197 67 L 197 68 L 198 69 L 198 71 L 199 72 L 199 74 L 200 75 L 200 77 L 201 78 L 201 81 L 202 82 L 202 86 L 203 87 L 203 92 L 204 93 L 204 116 L 203 117 L 203 122 L 202 123 L 202 127 L 201 128 L 201 131 L 200 132 L 200 134 L 199 135 L 199 137 L 198 138 L 198 140 L 197 141 L 197 142 L 196 143 L 196 145 L 195 146 L 195 147 L 194 148 L 194 149 L 193 150 L 193 151 L 191 153 L 191 154 L 190 155 L 190 156 L 188 158 L 188 159 L 186 161 L 186 162 L 183 165 L 183 166 L 177 172 L 177 173 L 173 177 L 172 177 L 166 183 L 165 183 L 162 186 L 161 186 L 159 188 L 158 188 L 156 190 L 155 190 L 154 191 L 153 191 L 152 192 L 151 192 L 150 193 L 149 193 L 148 194 L 147 194 L 146 195 L 145 195 L 144 196 L 143 196 L 142 197 L 140 197 L 139 198 L 137 198 L 136 199 L 134 199 L 133 200 L 131 200 L 130 201 L 126 201 L 125 202 L 121 202 L 120 203 L 112 203 L 111 204 L 99 204 L 98 203 L 90 203 L 89 202 L 85 202 L 84 201 L 81 201 L 80 200 L 77 200 L 76 199 L 74 199 L 73 198 L 71 198 L 70 197 L 69 197 L 68 196 L 66 196 L 65 195 L 64 195 L 63 194 L 62 194 L 61 193 L 60 193 L 59 192 L 58 192 L 57 191 L 56 191 L 54 189 L 53 189 L 51 187 L 50 187 L 48 185 L 47 185 L 44 182 L 43 182 L 28 167 L 28 166 L 24 162 L 24 161 L 22 159 L 22 158 L 20 156 L 20 155 L 19 154 L 19 153 L 18 152 L 18 151 L 17 150 L 17 149 L 16 148 L 16 147 L 15 146 L 15 145 L 14 144 L 14 143 L 13 142 L 13 140 L 12 139 L 12 138 L 11 137 L 11 135 L 10 134 L 10 131 L 9 130 L 9 127 L 8 126 L 8 122 L 7 121 L 7 115 L 6 114 L 6 95 L 7 94 L 7 88 L 8 87 L 8 83 L 9 82 L 9 79 L 10 78 L 10 75 L 11 74 L 11 73 L 12 72 L 12 70 L 13 69 L 13 67 L 14 66 L 14 65 L 15 64 L 15 63 L 16 62 L 16 61 L 17 60 L 17 59 L 18 58 L 18 57 L 19 56 L 19 55 L 21 53 L 21 52 L 22 51 L 22 50 L 25 47 L 25 46 L 28 43 L 28 42 L 42 28 L 43 28 L 47 24 L 48 24 L 50 22 L 51 22 L 53 20 L 54 20 L 55 19 L 56 19 L 58 17 L 59 17 L 60 16 L 61 16 L 62 15 L 63 15 L 64 14 L 66 14 L 67 13 L 68 13 L 69 12 L 71 12 L 72 11 L 73 11 L 74 10 L 77 10 L 78 9 L 80 9 L 81 8 L 84 8 L 85 7 L 90 7 L 91 6 Z"/>
</svg>
